<mxfile host="app.diagrams.net" agent="Mozilla/5.0 (Macintosh; Intel Mac OS X 10_15_7) AppleWebKit/537.36 (KHTML, like Gecko) Chrome/134.0.0.0 Safari/537.36" version="26.2.8">
  <diagram id="Ht1M8jgEwFfnCIfOTk4-" name="Page-1">
    <mxGraphModel dx="948" dy="512" grid="1" gridSize="10" guides="1" tooltips="1" connect="1" arrows="1" fold="1" page="1" pageScale="1" pageWidth="1169" pageHeight="827" math="0" shadow="0">
      <root>
        <mxCell id="0" />
        <mxCell id="1" parent="0" />
        <mxCell id="GuT3VO3JKZ2GulKYu3Ov-6" value="" style="outlineConnect=0;gradientColor=none;html=1;whiteSpace=wrap;fontSize=12;fontStyle=0;strokeColor=#FF9900;fillColor=none;verticalAlign=top;align=center;fontColor=#FF9900;dashed=0;spacingTop=3;" vertex="1" parent="1">
          <mxGeometry x="320" y="270" width="820" height="520" as="geometry" />
        </mxCell>
        <mxCell id="GuT3VO3JKZ2GulKYu3Ov-1" value="" style="verticalLabelPosition=bottom;aspect=fixed;html=1;shape=mxgraph.salesforce.web;" vertex="1" parent="1">
          <mxGeometry x="220" y="450" width="37.97" height="30" as="geometry" />
        </mxCell>
        <mxCell id="GuT3VO3JKZ2GulKYu3Ov-2" value="IDENITY" style="fillColor=#28A8E0;verticalLabelPosition=bottom;sketch=0;html=1;strokeColor=#ffffff;verticalAlign=top;align=center;points=[[0.145,0.145,0],[0.5,0,0],[0.855,0.145,0],[1,0.5,0],[0.855,0.855,0],[0.5,1,0],[0.145,0.855,0],[0,0.5,0]];pointerEvents=1;shape=mxgraph.cisco_safe.compositeIcon;bgIcon=ellipse;resIcon=mxgraph.cisco_safe.capability.identity_authorization;" vertex="1" parent="1">
          <mxGeometry x="257.97" y="371" width="43" height="43" as="geometry" />
        </mxCell>
        <mxCell id="GuT3VO3JKZ2GulKYu3Ov-5" value="" style="outlineConnect=0;gradientColor=none;html=1;whiteSpace=wrap;fontSize=12;fontStyle=0;strokeColor=#FF9900;fillColor=none;verticalAlign=top;align=center;fontColor=#FF9900;dashed=0;spacingTop=3;" vertex="1" parent="1">
          <mxGeometry x="380" y="300" width="730" height="480" as="geometry" />
        </mxCell>
        <mxCell id="GuT3VO3JKZ2GulKYu3Ov-7" value="MONITORING &amp;amp; LOGGING" style="rounded=1;whiteSpace=wrap;html=1;fillColor=#bac8d3;strokeColor=#23445d;" vertex="1" parent="1">
          <mxGeometry x="440" y="316" width="320" height="30" as="geometry" />
        </mxCell>
        <mxCell id="GuT3VO3JKZ2GulKYu3Ov-8" value="&lt;span style=&quot;background-color: transparent; color: light-dark(rgb(0, 0, 0), rgb(255, 255, 255));&quot;&gt;AUTO-SCALING&lt;/span&gt;&lt;br&gt;&lt;span style=&quot;background-color: transparent; color: light-dark(rgb(0, 0, 0), rgb(255, 255, 255));&quot;&gt;GROUP&lt;/span&gt;" style="rounded=1;whiteSpace=wrap;html=1;labelPosition=center;verticalLabelPosition=top;align=center;verticalAlign=bottom;spacingTop=6;spacing=-35;fillColor=#dae8fc;strokeColor=#6c8ebf;gradientColor=#7ea6e0;" vertex="1" parent="1">
          <mxGeometry x="465" y="390" width="120" height="220" as="geometry" />
        </mxCell>
        <mxCell id="GuT3VO3JKZ2GulKYu3Ov-10" value="ROUTING&amp;nbsp;" style="rounded=1;whiteSpace=wrap;html=1;textDirection=vertical-lr;fillColor=#f5f5f5;gradientColor=#b3b3b3;strokeColor=#666666;" vertex="1" parent="1">
          <mxGeometry x="330" y="417" width="30" height="96" as="geometry" />
        </mxCell>
        <mxCell id="GuT3VO3JKZ2GulKYu3Ov-13" value="COMPUTE" style="rounded=1;whiteSpace=wrap;html=1;fillColor=#d5e8d4;gradientColor=#97d077;strokeColor=#82b366;" vertex="1" parent="1">
          <mxGeometry x="480" y="440" width="90" height="150" as="geometry" />
        </mxCell>
        <mxCell id="GuT3VO3JKZ2GulKYu3Ov-14" value="MANGEMENT &amp;amp; POLICIES" style="rounded=1;whiteSpace=wrap;html=1;fillColor=#dae8fc;strokeColor=#6c8ebf;gradientColor=#7ea6e0;" vertex="1" parent="1">
          <mxGeometry x="880" y="326" width="220" height="30" as="geometry" />
        </mxCell>
        <mxCell id="GuT3VO3JKZ2GulKYu3Ov-15" value="SECURITY" style="rounded=1;whiteSpace=wrap;html=1;fillColor=#dae8fc;strokeColor=#6c8ebf;gradientColor=#7ea6e0;" vertex="1" parent="1">
          <mxGeometry x="480" y="660" width="360" height="30" as="geometry" />
        </mxCell>
      </root>
    </mxGraphModel>
  </diagram>
</mxfile>
